<svg xmlns="http://www.w3.org/2000/svg" xmlns:xlink="http://www.w3.org/1999/xlink" width="700" zoomAndPan="magnify" viewBox="0 0 525 525.750006" height="701" preserveAspectRatio="xMidYMid meet" version="1.0"><defs><g/><clipPath id="78e5f87c80"><path d="M 75.117188 75.6875 L 449.882812 75.6875 L 449.882812 449.761719 L 75.117188 449.761719 Z M 75.117188 75.6875 " clip-rule="nonzero"/></clipPath><clipPath id="e010ee84a9"><path d="M 201 326 L 324 326 L 324 335.839844 L 201 335.839844 Z M 201 326 " clip-rule="nonzero"/></clipPath></defs><g clip-path="url(#78e5f87c80)"><path fill="#000000" d="M 449.882812 262.722656 C 449.882812 265.816406 439.503906 268.636719 439.351562 271.695312 C 439.195312 274.78125 449.242188 278.621094 448.933594 281.667969 C 448.625 284.742188 438.015625 286.507812 437.554688 289.535156 C 437.09375 292.589844 446.695312 297.425781 446.082031 300.429688 C 445.464844 303.453125 434.730469 304.132812 433.960938 307.101562 C 433.191406 310.089844 442.25 315.878906 441.335938 318.804688 C 440.410156 321.75 429.664062 321.328125 428.597656 324.207031 C 427.523438 327.097656 435.949219 333.78125 434.734375 336.601562 C 433.519531 339.433594 422.871094 337.921875 421.515625 340.679688 C 420.152344 343.441406 427.855469 350.945312 426.363281 353.628906 C 424.863281 356.320312 414.425781 353.738281 412.792969 356.34375 C 411.160156 358.957031 418.0625 367.199219 416.304688 369.722656 C 414.542969 372.246094 404.417969 368.625 402.535156 371.054688 C 400.644531 373.484375 406.679688 382.382812 404.675781 384.714844 C 402.667969 387.046875 392.960938 382.425781 390.839844 384.652344 C 388.71875 386.882812 393.828125 396.339844 391.597656 398.460938 C 389.367188 400.578125 380.171875 395.003906 377.835938 397.007812 C 375.5 399.011719 379.632812 408.9375 377.199219 410.824219 C 374.769531 412.707031 366.183594 406.234375 363.65625 407.992188 C 361.132812 409.75 364.242188 420.042969 361.628906 421.671875 C 359.019531 423.300781 351.136719 415.992188 348.441406 417.492188 C 345.753906 418.984375 347.804688 429.535156 345.039062 430.894531 C 342.285156 432.25 335.175781 424.179688 332.34375 425.394531 C 329.523438 426.609375 330.488281 437.3125 327.597656 438.382812 C 324.71875 439.449219 318.472656 430.699219 315.527344 431.621094 C 312.597656 432.539062 312.46875 443.289062 309.480469 444.058594 C 306.507812 444.828125 301.1875 435.484375 298.160156 436.105469 C 295.15625 436.71875 293.933594 447.398438 290.875 447.859375 C 287.847656 448.320312 283.503906 438.488281 280.425781 438.796875 C 277.378906 439.105469 275.078125 449.605469 271.988281 449.757812 C 268.929688 449.910156 265.59375 439.691406 262.5 439.691406 C 259.40625 439.691406 256.070312 449.910156 253.011719 449.757812 C 249.921875 449.605469 247.625 439.105469 244.574219 438.796875 C 241.496094 438.488281 237.152344 448.320312 234.121094 447.859375 C 231.066406 447.398438 229.84375 436.71875 226.835938 436.105469 C 223.8125 435.484375 218.488281 444.824219 215.519531 444.058594 C 212.527344 443.289062 212.398438 432.539062 209.46875 431.621094 C 206.523438 430.699219 200.277344 439.449219 197.398438 438.382812 C 194.503906 437.3125 195.472656 426.605469 192.648438 425.394531 C 189.816406 424.175781 182.710938 432.246094 179.953125 430.890625 C 177.1875 429.53125 179.238281 418.980469 176.550781 417.488281 C 173.859375 415.988281 165.96875 423.296875 163.363281 421.667969 C 160.75 420.035156 163.859375 409.746094 161.335938 407.988281 C 158.808594 406.226562 150.222656 412.699219 147.792969 410.816406 C 145.355469 408.929688 149.488281 399.007812 147.15625 397.003906 C 144.820312 394.996094 135.625 400.570312 133.394531 398.453125 C 131.164062 396.332031 136.273438 386.875 134.152344 384.644531 C 132.03125 382.417969 122.324219 387.039062 120.316406 384.707031 C 118.3125 382.375 124.347656 373.476562 122.460938 371.046875 C 120.574219 368.617188 110.449219 372.238281 108.6875 369.714844 C 106.929688 367.191406 113.832031 358.949219 112.199219 356.335938 C 110.570312 353.730469 100.128906 356.3125 98.632812 353.621094 C 97.140625 350.9375 104.839844 343.4375 103.480469 340.671875 C 102.125 337.914062 91.476562 339.425781 90.261719 336.59375 C 89.046875 333.773438 97.472656 327.09375 96.402344 324.203125 C 95.335938 321.324219 84.585938 321.746094 83.664062 318.800781 C 82.746094 315.875 91.808594 310.085938 91.039062 307.097656 C 90.269531 304.132812 79.535156 303.453125 78.917969 300.425781 C 78.304688 297.425781 87.910156 292.589844 87.445312 289.535156 C 86.984375 286.507812 76.375 284.746094 76.066406 281.667969 C 75.757812 278.625 85.804688 274.785156 85.648438 271.695312 C 85.496094 268.636719 75.117188 265.816406 75.117188 262.722656 C 75.117188 259.628906 85.496094 256.8125 85.648438 253.753906 C 85.804688 250.667969 75.757812 246.824219 76.066406 243.78125 C 76.375 240.703125 86.984375 238.941406 87.445312 235.910156 C 87.910156 232.859375 78.304688 228.023438 78.917969 225.019531 C 79.535156 221.996094 90.269531 221.316406 91.039062 218.347656 C 91.808594 215.359375 82.746094 209.570312 83.664062 206.644531 C 84.589844 203.699219 95.335938 204.117188 96.402344 201.238281 C 97.476562 198.347656 89.050781 191.667969 90.261719 188.847656 C 91.480469 186.015625 102.128906 187.527344 103.484375 184.769531 C 104.84375 182.003906 97.144531 174.503906 98.636719 171.820312 C 100.136719 169.125 110.574219 171.707031 112.203125 169.105469 C 113.835938 166.492188 106.933594 158.246094 108.695312 155.726562 C 110.457031 153.203125 120.582031 156.824219 122.46875 154.394531 C 124.355469 151.964844 118.320312 143.066406 120.324219 140.734375 C 122.332031 138.398438 132.039062 143.023438 134.160156 140.796875 C 136.28125 138.566406 131.171875 129.105469 133.402344 126.988281 C 135.632812 124.867188 144.828125 130.445312 147.164062 128.4375 C 149.496094 126.433594 145.367188 116.511719 147.800781 114.625 C 150.230469 112.742188 158.816406 119.214844 161.34375 117.453125 C 163.867188 115.695312 160.757812 105.40625 163.371094 103.777344 C 165.976562 102.148438 173.867188 109.457031 176.558594 107.957031 C 179.246094 106.464844 177.191406 95.914062 179.960938 94.554688 C 182.71875 93.199219 189.820312 101.269531 192.65625 100.054688 C 195.476562 98.839844 194.511719 88.136719 197.402344 87.0625 C 200.28125 85.996094 206.527344 94.746094 209.472656 93.828125 C 212.402344 92.90625 212.53125 82.160156 215.519531 81.386719 C 218.492188 80.621094 223.8125 89.964844 226.839844 89.34375 C 229.84375 88.730469 231.066406 78.050781 234.121094 77.589844 C 237.152344 77.128906 241.496094 86.960938 244.574219 86.652344 C 247.621094 86.34375 249.921875 75.84375 253.011719 75.691406 C 256.070312 75.535156 259.402344 85.753906 262.5 85.753906 C 265.59375 85.753906 268.929688 75.535156 271.988281 75.691406 C 275.078125 75.84375 277.375 86.34375 280.425781 86.652344 C 283.503906 86.960938 287.847656 77.125 290.875 77.589844 C 293.933594 78.050781 295.15625 88.730469 298.164062 89.347656 C 301.191406 89.964844 306.511719 80.625 309.480469 81.386719 C 312.46875 82.160156 312.601562 92.910156 315.53125 93.828125 C 318.476562 94.75 324.722656 86 327.601562 87.066406 C 330.492188 88.136719 329.527344 98.84375 332.351562 100.054688 C 335.183594 101.269531 342.289062 93.203125 345.046875 94.558594 C 347.8125 95.917969 345.761719 106.46875 348.449219 107.960938 C 351.140625 109.457031 359.03125 102.152344 361.636719 103.78125 C 364.25 105.414062 361.140625 115.703125 363.664062 117.460938 C 366.191406 119.222656 374.777344 112.75 377.207031 114.632812 C 379.644531 116.515625 375.511719 126.441406 377.84375 128.449219 C 380.179688 130.449219 389.375 124.875 391.605469 126.996094 C 393.835938 129.117188 388.722656 138.574219 390.847656 140.804688 C 392.96875 143.03125 402.675781 138.410156 404.683594 140.742188 C 406.6875 143.074219 400.652344 151.96875 402.539062 154.402344 C 404.421875 156.832031 414.546875 153.210938 416.3125 155.738281 C 418.070312 158.257812 411.167969 166.5 412.800781 169.113281 C 414.425781 171.71875 424.867188 169.136719 426.367188 171.828125 C 427.859375 174.511719 420.160156 182.011719 421.515625 184.777344 C 422.875 187.535156 433.519531 186.023438 434.738281 188.855469 C 435.953125 191.675781 427.523438 198.355469 428.597656 201.246094 C 429.664062 204.125 440.410156 203.707031 441.335938 206.648438 C 442.253906 209.574219 433.191406 215.359375 433.964844 218.347656 C 434.730469 221.316406 445.464844 221.996094 446.082031 225.019531 C 446.695312 228.023438 437.09375 232.859375 437.554688 235.910156 C 438.015625 238.941406 448.625 240.703125 448.933594 243.777344 C 449.242188 246.824219 439.195312 250.664062 439.351562 253.753906 C 439.503906 256.808594 449.882812 259.628906 449.882812 262.722656 " fill-opacity="1" fill-rule="nonzero"/></g><path fill="#ffffff" d="M 262.5 96.308594 C 170.679688 96.308594 95.984375 170.960938 95.984375 262.722656 C 95.984375 354.484375 170.679688 429.140625 262.5 429.140625 C 354.316406 429.140625 429.015625 354.484375 429.015625 262.722656 C 429.015625 170.960938 354.316406 96.308594 262.5 96.308594 Z M 262.5 431.820312 C 169.203125 431.820312 93.304688 355.960938 93.304688 262.722656 C 93.304688 169.484375 169.203125 93.628906 262.5 93.628906 C 355.792969 93.628906 431.695312 169.484375 431.695312 262.722656 C 431.695312 355.960938 355.792969 431.820312 262.5 431.820312 " fill-opacity="1" fill-rule="nonzero"/><path fill="#ffffff" d="M 259.332031 106.414062 C 259.332031 104.890625 260.539062 103.65625 262.058594 103.65625 C 263.582031 103.65625 264.792969 104.867188 264.820312 106.386719 C 264.820312 107.90625 263.582031 109.140625 262.058594 109.140625 C 260.566406 109.140625 259.332031 107.933594 259.332031 106.414062 Z M 277.136719 109.839844 C 275.617188 109.683594 274.507812 108.34375 274.664062 106.851562 C 274.792969 105.328125 276.132812 104.226562 277.652344 104.378906 C 279.148438 104.507812 280.253906 105.847656 280.125 107.367188 C 280 108.78125 278.785156 109.839844 277.394531 109.839844 C 277.292969 109.839844 277.214844 109.839844 277.136719 109.839844 Z M 244.019531 107.445312 C 243.867188 105.949219 244.972656 104.609375 246.46875 104.453125 C 247.988281 104.300781 249.328125 105.410156 249.484375 106.902344 C 249.613281 108.421875 248.53125 109.761719 247.011719 109.914062 C 246.933594 109.914062 246.832031 109.914062 246.753906 109.914062 C 245.335938 109.914062 244.152344 108.859375 244.019531 107.445312 Z M 292.058594 111.976562 C 290.5625 111.695312 289.585938 110.25 289.867188 108.757812 C 290.179688 107.261719 291.621094 106.308594 293.089844 106.59375 C 294.585938 106.875 295.5625 108.320312 295.253906 109.8125 C 295.023438 111.125 293.863281 112.027344 292.574219 112.027344 C 292.394531 112.027344 292.214844 112 292.058594 111.976562 Z M 228.894531 109.992188 C 228.585938 108.496094 229.539062 107.058594 231.035156 106.773438 C 232.527344 106.464844 233.96875 107.445312 234.253906 108.910156 C 234.5625 110.40625 233.582031 111.847656 232.117188 112.132812 C 231.933594 112.183594 231.753906 112.207031 231.574219 112.207031 C 230.285156 112.207031 229.152344 111.308594 228.894531 109.992188 Z M 306.667969 115.582031 C 305.230469 115.144531 304.402344 113.625 304.839844 112.15625 C 305.277344 110.714844 306.796875 109.890625 308.269531 110.328125 C 309.710938 110.765625 310.535156 112.285156 310.097656 113.753906 C 309.738281 114.9375 308.65625 115.710938 307.46875 115.710938 C 307.210938 115.710938 306.953125 115.660156 306.667969 115.582031 Z M 214.074219 114.011719 C 213.636719 112.570312 214.4375 111.023438 215.90625 110.585938 C 217.347656 110.148438 218.867188 110.945312 219.332031 112.414062 C 219.769531 113.855469 218.945312 115.375 217.503906 115.839844 C 217.21875 115.917969 216.960938 115.941406 216.703125 115.941406 C 215.519531 115.941406 214.4375 115.195312 214.074219 114.011719 Z M 320.898438 120.628906 C 319.476562 120.039062 318.808594 118.441406 319.402344 117.050781 C 319.96875 115.632812 321.566406 114.964844 322.984375 115.554688 C 324.375 116.121094 325.046875 117.71875 324.476562 119.136719 C 324.042969 120.191406 323.007812 120.835938 321.925781 120.835938 C 321.566406 120.835938 321.230469 120.761719 320.898438 120.628906 Z M 199.722656 119.46875 C 199.15625 118.082031 199.796875 116.457031 201.214844 115.890625 C 202.605469 115.300781 204.207031 115.96875 204.796875 117.359375 C 205.390625 118.75 204.71875 120.34375 203.328125 120.9375 C 202.96875 121.09375 202.605469 121.144531 202.273438 121.144531 C 201.191406 121.144531 200.160156 120.527344 199.722656 119.46875 Z M 334.527344 127.015625 C 333.1875 126.324219 332.671875 124.648438 333.394531 123.308594 C 334.117188 121.96875 335.765625 121.453125 337.109375 122.175781 C 338.445312 122.898438 338.960938 124.542969 338.238281 125.882812 C 337.753906 126.8125 336.796875 127.351562 335.816406 127.351562 C 335.378906 127.351562 334.941406 127.25 334.527344 127.015625 Z M 186.011719 126.324219 C 185.289062 124.984375 185.78125 123.308594 187.121094 122.585938 C 188.433594 121.867188 190.109375 122.382812 190.832031 123.695312 C 191.550781 125.035156 191.035156 126.710938 189.722656 127.429688 C 189.308594 127.660156 188.847656 127.761719 188.410156 127.761719 C 187.425781 127.761719 186.5 127.222656 186.011719 126.324219 Z M 347.464844 134.746094 L 347.492188 134.746094 C 346.230469 133.894531 345.867188 132.195312 346.71875 130.929688 C 347.542969 129.671875 349.246094 129.335938 350.507812 130.160156 C 351.769531 131.011719 352.128906 132.710938 351.28125 133.972656 C 350.765625 134.769531 349.890625 135.207031 348.988281 135.207031 C 348.46875 135.207031 347.929688 135.054688 347.464844 134.746094 Z M 172.996094 134.460938 C 172.144531 133.222656 172.480469 131.5 173.746094 130.675781 C 175.007812 129.824219 176.707031 130.160156 177.558594 131.421875 C 178.40625 132.660156 178.074219 134.359375 176.8125 135.207031 C 176.347656 135.542969 175.804688 135.671875 175.289062 135.671875 C 174.390625 135.671875 173.539062 135.257812 172.996094 134.460938 Z M 359.605469 143.683594 C 358.441406 142.726562 358.265625 141.003906 359.21875 139.816406 C 360.167969 138.660156 361.894531 138.476562 363.085938 139.433594 C 364.242188 140.382812 364.421875 142.109375 363.46875 143.296875 C 362.929688 143.964844 362.132812 144.300781 361.332031 144.300781 C 360.738281 144.300781 360.121094 144.09375 359.605469 143.683594 Z M 160.859375 143.859375 C 159.90625 142.675781 160.058594 140.976562 161.246094 139.996094 C 162.402344 139.046875 164.128906 139.199219 165.113281 140.359375 C 166.0625 141.542969 165.910156 143.269531 164.726562 144.222656 C 164.207031 144.660156 163.589844 144.839844 162.996094 144.839844 C 162.199219 144.839844 161.398438 144.503906 160.859375 143.859375 Z M 370.816406 153.777344 C 369.730469 152.695312 369.730469 150.96875 370.789062 149.886719 C 371.871094 148.808594 373.59375 148.808594 374.683594 149.886719 C 375.734375 150.945312 375.765625 152.695312 374.683594 153.75 C 374.136719 154.292969 373.441406 154.574219 372.75 154.574219 C 372.050781 154.574219 371.355469 154.292969 370.816406 153.777344 Z M 149.699219 154.394531 C 148.617188 153.3125 148.617188 151.589844 149.699219 150.507812 C 150.757812 149.425781 152.507812 149.425781 153.566406 150.507812 C 154.648438 151.5625 154.648438 153.3125 153.589844 154.371094 C 153.050781 154.910156 152.355469 155.195312 151.632812 155.195312 C 150.9375 155.195312 150.242188 154.910156 149.699219 154.394531 Z M 380.96875 164.902344 C 380.011719 163.746094 380.171875 162.019531 381.328125 161.042969 C 382.515625 160.085938 384.242188 160.242188 385.191406 161.402344 C 386.175781 162.585938 385.996094 164.3125 384.832031 165.261719 C 384.316406 165.699219 383.699219 165.90625 383.082031 165.90625 C 382.308594 165.90625 381.507812 165.546875 380.96875 164.902344 Z M 139.625 165.933594 C 138.4375 164.980469 138.28125 163.253906 139.238281 162.09375 C 140.191406 160.910156 141.917969 160.730469 143.101562 161.710938 C 144.261719 162.664062 144.441406 164.386719 143.488281 165.546875 C 142.949219 166.21875 142.148438 166.578125 141.351562 166.578125 C 140.757812 166.578125 140.140625 166.371094 139.625 165.933594 Z M 390.011719 176.984375 C 389.160156 175.722656 389.5 174.023438 390.734375 173.171875 C 392 172.320312 393.699219 172.65625 394.550781 173.890625 C 395.398438 175.15625 395.0625 176.855469 393.804688 177.703125 C 393.335938 178.015625 392.796875 178.167969 392.28125 178.167969 C 391.40625 178.167969 390.527344 177.757812 390.011719 176.984375 Z M 130.707031 178.425781 C 129.441406 177.601562 129.109375 175.902344 129.960938 174.640625 C 130.785156 173.378906 132.484375 173.042969 133.746094 173.867188 C 135.011719 174.714844 135.34375 176.417969 134.519531 177.679688 C 133.980469 178.476562 133.128906 178.890625 132.226562 178.890625 C 131.710938 178.890625 131.171875 178.761719 130.707031 178.425781 Z M 397.820312 189.863281 L 397.796875 189.863281 C 397.074219 188.519531 397.589844 186.875 398.929688 186.152344 C 400.246094 185.429688 401.917969 185.921875 402.640625 187.257812 C 403.363281 188.574219 402.847656 190.25 401.535156 190.96875 C 401.121094 191.199219 400.65625 191.304688 400.21875 191.304688 C 399.238281 191.304688 398.3125 190.761719 397.820312 189.863281 Z M 123.078125 191.742188 C 121.738281 191.019531 121.222656 189.371094 121.945312 188.03125 C 122.640625 186.695312 124.316406 186.175781 125.65625 186.898438 C 126.996094 187.621094 127.511719 189.269531 126.789062 190.609375 C 126.300781 191.535156 125.347656 192.050781 124.367188 192.050781 C 123.929688 192.050781 123.492188 191.949219 123.078125 191.742188 Z M 404.320312 203.460938 C 403.722656 202.046875 404.394531 200.445312 405.785156 199.855469 C 407.175781 199.261719 408.773438 199.929688 409.367188 201.324219 C 409.957031 202.738281 409.292969 204.335938 407.898438 204.929688 C 407.566406 205.058594 407.203125 205.132812 406.84375 205.132812 C 405.761719 205.132812 404.753906 204.492188 404.320312 203.460938 Z M 116.765625 205.726562 C 115.371094 205.160156 114.703125 203.539062 115.296875 202.148438 C 115.863281 200.753906 117.460938 200.085938 118.878906 200.652344 C 120.269531 201.246094 120.9375 202.839844 120.371094 204.234375 C 119.933594 205.289062 118.902344 205.933594 117.820312 205.933594 C 117.460938 205.933594 117.125 205.878906 116.765625 205.726562 Z M 409.445312 217.625 C 408.980469 216.15625 409.804688 214.636719 411.25 214.175781 C 412.691406 213.738281 414.238281 214.5625 414.675781 216.003906 C 415.113281 217.445312 414.316406 218.992188 412.871094 219.429688 C 412.589844 219.507812 412.332031 219.558594 412.046875 219.558594 C 410.886719 219.558594 409.804688 218.785156 409.445312 217.625 Z M 111.894531 220.28125 C 110.449219 219.839844 109.625 218.296875 110.0625 216.851562 C 110.503906 215.410156 112.023438 214.585938 113.464844 215.027344 C 114.933594 215.433594 115.734375 216.980469 115.320312 218.425781 C 114.960938 219.609375 113.851562 220.382812 112.691406 220.382812 C 112.433594 220.382812 112.152344 220.355469 111.894531 220.28125 Z M 413.132812 232.203125 C 412.847656 230.734375 413.800781 229.292969 415.296875 228.984375 C 416.761719 228.675781 418.207031 229.652344 418.515625 231.121094 C 418.828125 232.617188 417.847656 234.058594 416.378906 234.367188 C 416.195312 234.394531 415.992188 234.417969 415.835938 234.417969 C 414.550781 234.417969 413.414062 233.515625 413.132812 232.203125 Z M 108.464844 235.21875 C 106.996094 234.933594 106.019531 233.492188 106.300781 232 C 106.585938 230.503906 108.027344 229.550781 109.523438 229.835938 C 111.015625 230.117188 111.972656 231.558594 111.6875 233.054688 C 111.429688 234.367188 110.296875 235.269531 109.007812 235.269531 C 108.828125 235.269531 108.644531 235.242188 108.464844 235.21875 Z M 415.398438 247.117188 C 415.242188 245.597656 416.328125 244.257812 417.847656 244.101562 C 419.339844 243.949219 420.683594 245.054688 420.835938 246.550781 C 420.992188 248.070312 419.910156 249.40625 418.390625 249.5625 C 418.308594 249.5625 418.207031 249.589844 418.105469 249.589844 C 416.714844 249.589844 415.527344 248.53125 415.398438 247.117188 Z M 106.535156 250.4375 C 105.011719 250.285156 103.90625 248.945312 104.058594 247.449219 C 104.214844 245.929688 105.554688 244.824219 107.046875 244.980469 C 108.570312 245.105469 109.675781 246.445312 109.523438 247.964844 C 109.394531 249.382812 108.207031 250.4375 106.789062 250.4375 C 106.714844 250.4375 106.609375 250.4375 106.535156 250.4375 Z M 416.171875 262.722656 C 416.171875 262.621094 416.171875 262.519531 416.195312 262.441406 C 416.171875 262.335938 416.171875 262.234375 416.171875 262.15625 C 416.171875 260.636719 417.382812 259.402344 418.902344 259.402344 C 420.425781 259.402344 421.660156 260.613281 421.660156 262.132812 C 421.660156 262.234375 421.660156 262.335938 421.636719 262.441406 C 421.660156 262.519531 421.660156 262.621094 421.660156 262.722656 C 421.660156 264.242188 420.425781 265.480469 418.902344 265.480469 C 417.40625 265.480469 416.171875 264.242188 416.171875 262.722656 Z M 103.335938 263.03125 C 103.335938 261.511719 104.574219 260.277344 106.070312 260.277344 C 107.589844 260.277344 108.828125 261.488281 108.828125 263.007812 C 108.828125 264.527344 107.589844 265.761719 106.097656 265.761719 C 104.574219 265.761719 103.335938 264.527344 103.335938 263.03125 Z M 417.898438 280.777344 C 416.402344 280.625 415.296875 279.285156 415.449219 277.765625 C 415.578125 276.273438 416.917969 275.164062 418.441406 275.316406 C 419.933594 275.445312 421.042969 276.785156 420.914062 278.304688 C 420.757812 279.722656 419.574219 280.777344 418.183594 280.777344 C 418.078125 280.777344 418 280.777344 417.898438 280.777344 Z M 104.113281 278.589844 C 103.980469 277.097656 105.0625 275.757812 106.585938 275.601562 C 108.078125 275.445312 109.417969 276.554688 109.574219 278.050781 C 109.730469 279.570312 108.621094 280.90625 107.125 281.0625 C 107.023438 281.0625 106.945312 281.0625 106.84375 281.0625 C 105.453125 281.0625 104.265625 280.007812 104.113281 278.589844 Z M 415.425781 295.898438 C 413.929688 295.613281 412.949219 294.148438 413.261719 292.679688 C 413.542969 291.183594 414.988281 290.230469 416.480469 290.515625 C 417.976562 290.824219 418.929688 292.265625 418.644531 293.734375 C 418.390625 295.046875 417.226562 295.949219 415.9375 295.949219 C 415.757812 295.949219 415.605469 295.921875 415.425781 295.898438 Z M 106.429688 294.015625 C 106.121094 292.550781 107.101562 291.105469 108.570312 290.796875 C 110.0625 290.515625 111.507812 291.46875 111.792969 292.960938 C 112.097656 294.429688 111.148438 295.871094 109.652344 296.183594 C 109.472656 296.207031 109.289062 296.230469 109.109375 296.230469 C 107.824219 296.230469 106.6875 295.332031 106.429688 294.015625 Z M 411.429688 310.707031 C 409.984375 310.269531 409.160156 308.722656 409.601562 307.28125 C 410.039062 305.839844 411.582031 305.015625 413.027344 305.453125 C 414.46875 305.890625 415.296875 307.433594 414.855469 308.878906 C 414.496094 310.0625 413.414062 310.835938 412.226562 310.835938 C 411.972656 310.835938 411.6875 310.785156 411.429688 310.707031 Z M 110.21875 309.164062 C 109.78125 307.71875 110.605469 306.175781 112.046875 305.738281 C 113.492188 305.296875 115.039062 306.097656 115.476562 307.566406 C 115.914062 309.007812 115.089844 310.523438 113.644531 310.992188 C 113.386719 311.066406 113.105469 311.09375 112.847656 311.09375 C 111.660156 311.09375 110.578125 310.347656 110.21875 309.164062 Z M 406.015625 325.054688 C 404.597656 324.484375 403.957031 322.863281 404.523438 321.472656 C 405.117188 320.082031 406.714844 319.410156 408.105469 319.976562 C 409.523438 320.570312 410.167969 322.167969 409.601562 323.558594 C 409.160156 324.640625 408.128906 325.257812 407.074219 325.257812 C 406.714844 325.257812 406.351562 325.207031 406.015625 325.054688 Z M 115.503906 323.839844 C 114.933594 322.449219 115.578125 320.828125 116.996094 320.261719 C 118.386719 319.667969 119.984375 320.339844 120.578125 321.730469 C 121.144531 323.148438 120.5 324.742188 119.109375 325.308594 C 118.75 325.464844 118.386719 325.542969 118.054688 325.542969 C 116.96875 325.542969 115.941406 324.898438 115.503906 323.839844 Z M 399.214844 338.808594 C 397.875 338.085938 397.359375 336.410156 398.078125 335.097656 C 398.800781 333.757812 400.453125 333.242188 401.789062 333.964844 C 403.128906 334.683594 403.648438 336.332031 402.925781 337.671875 C 402.410156 338.601562 401.484375 339.117188 400.503906 339.117188 C 400.066406 339.117188 399.625 339.011719 399.214844 338.808594 Z M 122.226562 337.929688 C 121.507812 336.589844 121.996094 334.945312 123.335938 334.222656 C 124.675781 333.5 126.324219 333.988281 127.046875 335.328125 C 127.769531 336.667969 127.277344 338.339844 125.9375 339.0625 C 125.527344 339.269531 125.085938 339.371094 124.625 339.371094 C 123.671875 339.371094 122.71875 338.855469 122.226562 337.929688 Z M 391.070312 351.8125 C 389.804688 350.960938 389.472656 349.261719 390.324219 348 C 391.171875 346.738281 392.875 346.40625 394.136719 347.253906 C 395.375 348.101562 395.734375 349.804688 394.886719 351.066406 C 394.34375 351.839844 393.496094 352.273438 392.589844 352.273438 C 392.078125 352.273438 391.53125 352.121094 391.070312 351.8125 Z M 130.269531 351.296875 C 129.441406 350.035156 129.78125 348.335938 131.015625 347.488281 C 132.277344 346.636719 133.980469 346.972656 134.832031 348.234375 C 135.679688 349.492188 135.34375 351.195312 134.082031 352.042969 C 133.617188 352.355469 133.078125 352.507812 132.5625 352.507812 C 131.6875 352.507812 130.808594 352.097656 130.269531 351.296875 Z M 381.714844 363.96875 C 380.554688 363.015625 380.378906 361.265625 381.328125 360.105469 C 382.28125 358.945312 384.035156 358.769531 385.191406 359.71875 C 386.355469 360.699219 386.535156 362.425781 385.582031 363.585938 C 385.039062 364.253906 384.242188 364.585938 383.464844 364.585938 C 382.851562 364.585938 382.230469 364.382812 381.714844 363.96875 Z M 139.597656 363.816406 C 138.644531 362.632812 138.800781 360.90625 139.984375 359.953125 C 141.144531 359 142.871094 359.152344 143.851562 360.335938 L 143.851562 360.3125 C 144.800781 361.496094 144.648438 363.222656 143.464844 364.175781 C 142.949219 364.613281 142.328125 364.820312 141.734375 364.820312 C 140.9375 364.820312 140.140625 364.460938 139.597656 363.816406 Z M 371.226562 375.144531 C 370.144531 374.09375 370.144531 372.339844 371.203125 371.28125 L 371.226562 371.28125 C 372.285156 370.199219 374.011719 370.199219 375.09375 371.28125 C 376.148438 372.339844 376.148438 374.0625 375.09375 375.144531 C 374.550781 375.6875 373.855469 375.945312 373.160156 375.945312 C 372.464844 375.945312 371.742188 375.6875 371.226562 375.144531 Z M 150.113281 375.351562 C 149.03125 374.269531 149.03125 372.542969 150.113281 371.464844 C 151.167969 370.40625 152.921875 370.40625 153.976562 371.464844 C 155.0625 372.542969 155.0625 374.269531 153.976562 375.351562 C 153.460938 375.894531 152.742188 376.152344 152.042969 376.152344 C 151.347656 376.152344 150.652344 375.894531 150.113281 375.351562 Z M 359.683594 385.269531 C 358.703125 384.085938 358.882812 382.359375 360.042969 381.40625 C 361.226562 380.429688 362.953125 380.605469 363.90625 381.765625 C 364.863281 382.949219 364.707031 384.675781 363.523438 385.628906 C 363.03125 386.066406 362.414062 386.273438 361.796875 386.273438 C 360.996094 386.273438 360.222656 385.914062 359.683594 385.269531 Z M 161.683594 385.808594 C 160.523438 384.859375 160.34375 383.132812 161.296875 381.972656 C 162.277344 380.789062 164.003906 380.605469 165.164062 381.585938 C 166.347656 382.539062 166.503906 384.265625 165.550781 385.449219 C 165.007812 386.09375 164.234375 386.429688 163.4375 386.429688 C 162.816406 386.429688 162.199219 386.25 161.683594 385.808594 Z M 347.179688 394.207031 C 346.359375 392.945312 346.691406 391.242188 347.957031 390.394531 C 349.21875 389.546875 350.917969 389.878906 351.769531 391.140625 C 352.59375 392.402344 352.261719 394.105469 350.996094 394.953125 C 350.535156 395.261719 349.992188 395.414062 349.476562 395.414062 C 348.601562 395.414062 347.722656 394.980469 347.179688 394.207031 Z M 174.234375 395.105469 C 172.972656 394.257812 172.636719 392.558594 173.488281 391.296875 C 174.3125 390.035156 176.011719 389.699219 177.273438 390.550781 C 178.539062 391.398438 178.871094 393.101562 178.046875 394.359375 C 177.507812 395.136719 176.628906 395.570312 175.753906 395.570312 C 175.238281 395.570312 174.699219 395.414062 174.234375 395.105469 Z M 333.910156 401.882812 C 333.1875 400.542969 333.703125 398.867188 335.019531 398.148438 L 335.042969 398.148438 C 336.359375 397.425781 338.03125 397.941406 338.757812 399.28125 C 339.453125 400.621094 338.960938 402.265625 337.621094 402.988281 C 337.210938 403.222656 336.769531 403.324219 336.332031 403.324219 C 335.351562 403.324219 334.398438 402.78125 333.910156 401.882812 Z M 187.632812 403.117188 C 186.292969 402.421875 185.78125 400.75 186.5 399.40625 C 187.222656 398.070312 188.871094 397.578125 190.210938 398.277344 C 191.550781 399 192.066406 400.671875 191.34375 402.011719 C 190.855469 402.910156 189.902344 403.453125 188.921875 403.453125 C 188.484375 403.453125 188.046875 403.347656 187.632812 403.117188 Z M 319.941406 408.191406 C 319.351562 406.800781 320.019531 405.203125 321.410156 404.613281 C 322.800781 404.019531 324.429688 404.691406 324.992188 406.105469 C 325.585938 407.496094 324.914062 409.09375 323.523438 409.683594 C 323.164062 409.8125 322.828125 409.890625 322.46875 409.890625 C 321.382812 409.890625 320.378906 409.246094 319.941406 408.191406 Z M 201.757812 409.789062 C 200.339844 409.222656 199.667969 407.597656 200.261719 406.210938 C 200.828125 404.816406 202.453125 404.148438 203.84375 404.714844 C 205.234375 405.304688 205.90625 406.902344 205.339844 408.292969 C 204.902344 409.351562 203.871094 409.992188 202.789062 409.992188 C 202.453125 409.992188 202.09375 409.945312 201.757812 409.789062 Z M 305.40625 413.109375 C 304.96875 411.667969 305.769531 410.148438 307.238281 409.710938 C 308.679688 409.246094 310.203125 410.074219 310.640625 411.511719 C 311.078125 412.980469 310.28125 414.5 308.835938 414.9375 C 308.554688 415.015625 308.292969 415.066406 308.011719 415.066406 C 306.851562 415.066406 305.769531 414.292969 305.40625 413.109375 Z M 216.472656 415.042969 C 215.003906 414.605469 214.179688 413.0625 214.617188 411.617188 C 215.054688 410.148438 216.601562 409.351562 218.042969 409.789062 C 219.488281 410.226562 220.3125 411.746094 219.875 413.1875 C 219.511719 414.375 218.429688 415.144531 217.246094 415.144531 C 216.988281 415.144531 216.730469 415.121094 216.472656 415.042969 Z M 290.460938 416.589844 C 290.152344 415.09375 291.105469 413.652344 292.601562 413.371094 L 292.601562 413.339844 C 294.09375 413.0625 295.535156 414.039062 295.847656 415.503906 C 296.132812 417 295.152344 418.441406 293.683594 418.722656 C 293.503906 418.777344 293.324219 418.804688 293.140625 418.804688 C 291.851562 418.804688 290.71875 417.875 290.460938 416.589844 Z M 231.601562 418.804688 C 230.132812 418.492188 229.152344 417.050781 229.433594 415.582031 C 229.746094 414.089844 231.1875 413.109375 232.683594 413.421875 C 234.152344 413.703125 235.128906 415.144531 234.820312 416.640625 C 234.5625 417.953125 233.429688 418.855469 232.140625 418.855469 C 231.960938 418.855469 231.78125 418.828125 231.601562 418.804688 Z M 275.230469 418.546875 C 275.074219 417.050781 276.183594 415.710938 277.703125 415.558594 C 279.199219 415.40625 280.539062 416.511719 280.691406 418.03125 C 280.847656 419.523438 279.738281 420.863281 278.21875 421.019531 C 278.140625 421.019531 278.066406 421.042969 277.960938 421.042969 C 276.570312 421.042969 275.386719 419.988281 275.230469 418.546875 Z M 247.0625 421.042969 C 245.542969 420.914062 244.433594 419.574219 244.589844 418.054688 C 244.742188 416.5625 246.082031 415.457031 247.578125 415.582031 C 249.097656 415.738281 250.207031 417.078125 250.050781 418.570312 C 249.921875 419.988281 248.710938 421.070312 247.320312 421.070312 C 247.21875 421.070312 247.140625 421.070312 247.0625 421.042969 Z M 259.894531 419.035156 C 259.894531 417.539062 261.132812 416.304688 262.65625 416.304688 C 264.148438 416.304688 265.386719 417.515625 265.386719 419.035156 C 265.386719 420.554688 264.175781 421.789062 262.65625 421.789062 C 261.132812 421.789062 259.894531 420.554688 259.894531 419.035156 " fill-opacity="1" fill-rule="nonzero"/><path fill="#ffffff" d="M 312.578125 285.261719 L 293.113281 285.261719 C 284.242188 285.261719 277.023438 278.035156 277.023438 269.160156 C 277.023438 261.261719 280.503906 253.652344 286.820312 247.691406 C 294.347656 240.59375 298.421875 230.605469 297.984375 220.234375 C 297.238281 202.660156 281.148438 186.738281 263.539062 186.195312 C 253.820312 185.910156 244.644531 189.445312 237.679688 196.207031 C 230.695312 202.96875 226.851562 212.050781 226.851562 221.78125 C 226.851562 231.714844 231.054688 241.289062 238.378906 248 C 244.488281 253.597656 247.839844 260.875 247.839844 268.4375 L 247.839844 269.132812 C 247.839844 278.011719 240.621094 285.234375 231.75 285.234375 L 212.285156 285.234375 C 201.664062 285.234375 193.027344 293.882812 193.027344 304.511719 L 193.027344 318.5 C 193.027344 319.917969 194.1875 321.078125 195.605469 321.078125 L 329.257812 321.078125 C 330.675781 321.078125 331.835938 319.917969 331.835938 318.5 L 331.835938 304.511719 C 331.835938 293.90625 323.199219 285.261719 312.578125 285.261719 Z M 326.679688 315.945312 L 198.183594 315.945312 L 198.183594 304.539062 C 198.183594 296.746094 204.5 290.421875 212.285156 290.421875 L 231.75 290.421875 C 243.457031 290.421875 252.996094 280.875 252.996094 269.160156 L 252.996094 268.460938 C 252.996094 259.429688 249.027344 250.8125 241.859375 244.207031 C 235.59375 238.453125 232.007812 230.296875 232.007812 221.78125 C 232.007812 213.472656 235.285156 205.703125 241.265625 199.925781 C 247.222656 194.144531 255.109375 191.097656 263.386719 191.355469 C 278.183594 191.820312 292.210938 205.703125 292.828125 220.492188 C 293.1875 229.34375 289.707031 237.910156 283.289062 243.949219 C 275.914062 250.890625 271.867188 259.84375 271.867188 269.160156 C 271.867188 280.875 281.40625 290.421875 293.113281 290.421875 L 312.578125 290.421875 C 320.363281 290.421875 326.679688 296.746094 326.679688 304.539062 Z M 326.679688 315.945312 " fill-opacity="1" fill-rule="nonzero"/><path fill="#ffffff" d="M 263 202.683594 L 262.433594 202.683594 C 251.914062 202.683594 243.355469 211.253906 243.355469 221.78125 C 243.355469 227.175781 245.546875 232.179688 249.515625 235.84375 C 250.003906 236.308594 250.625 236.515625 251.269531 236.515625 C 251.964844 236.515625 252.660156 236.230469 253.175781 235.691406 C 254.128906 234.632812 254.078125 233.007812 253.023438 232.050781 C 250.109375 229.394531 248.511719 225.753906 248.511719 221.808594 C 248.511719 214.117188 254.75 207.871094 262.378906 207.871094 L 262.921875 207.871094 C 262.949219 207.871094 262.949219 207.871094 262.972656 207.871094 C 264.367188 207.871094 265.527344 206.738281 265.550781 205.34375 C 265.550781 203.898438 264.417969 202.710938 263 202.683594 Z M 263 202.683594 " fill-opacity="1" fill-rule="nonzero"/><g clip-path="url(#e010ee84a9)"><path fill="#ffffff" d="M 320.722656 326.265625 C 319.304688 326.265625 318.144531 327.429688 318.144531 328.847656 L 318.144531 330.679688 L 206.71875 330.679688 L 206.71875 328.847656 C 206.71875 327.429688 205.558594 326.265625 204.140625 326.265625 C 202.722656 326.265625 201.5625 327.429688 201.5625 328.847656 L 201.5625 333.261719 C 201.5625 334.679688 202.722656 335.839844 204.140625 335.839844 L 320.699219 335.839844 C 322.117188 335.839844 323.277344 334.679688 323.277344 333.261719 L 323.277344 328.847656 C 323.300781 327.429688 322.140625 326.265625 320.722656 326.265625 Z M 320.722656 326.265625 " fill-opacity="1" fill-rule="nonzero"/></g><g fill="#48a9c5" fill-opacity="1"><g transform="translate(149.301227, 260.843593)"><g><path d="M -26.140625 -15 C -25.972656 -16.457031 -25.597656 -17.863281 -25.015625 -19.21875 C -24.429688 -20.570312 -23.898438 -21.5625 -23.421875 -22.1875 L -22.65625 -23.09375 L -18.015625 -20.0625 C -18.171875 -19.875 -18.367188 -19.613281 -18.609375 -19.28125 C -18.859375 -18.957031 -19.210938 -18.332031 -19.671875 -17.40625 C -20.128906 -16.488281 -20.40625 -15.617188 -20.5 -14.796875 C -20.613281 -13.773438 -20.484375 -12.960938 -20.109375 -12.359375 C -19.734375 -11.753906 -19.175781 -11.410156 -18.4375 -11.328125 C -18.0625 -11.285156 -17.703125 -11.375 -17.359375 -11.59375 C -17.015625 -11.820312 -16.625 -12.234375 -16.1875 -12.828125 C -15.757812 -13.421875 -15.40625 -13.941406 -15.125 -14.390625 C -14.851562 -14.847656 -14.445312 -15.550781 -13.90625 -16.5 C -12.96875 -18.164062 -11.789062 -19.539062 -10.375 -20.625 C -8.96875 -21.71875 -7.457031 -22.171875 -5.84375 -21.984375 C -4.289062 -21.804688 -2.96875 -21.375 -1.875 -20.6875 C -0.78125 -20 0.0351562 -19.132812 0.578125 -18.09375 C 1.128906 -17.050781 1.492188 -15.921875 1.671875 -14.703125 C 1.859375 -13.492188 1.878906 -12.207031 1.734375 -10.84375 C 1.597656 -9.65625 1.34375 -8.507812 0.96875 -7.40625 C 0.59375 -6.3125 0.1875 -5.398438 -0.25 -4.671875 C -0.6875 -3.941406 -1.113281 -3.289062 -1.53125 -2.71875 C -1.957031 -2.144531 -2.304688 -1.738281 -2.578125 -1.5 L -3 -1.09375 L -7.8125 -4.765625 C -7.570312 -4.992188 -7.253906 -5.316406 -6.859375 -5.734375 C -6.472656 -6.160156 -5.925781 -6.925781 -5.21875 -8.03125 C -4.519531 -9.132812 -4.125 -10.132812 -4.03125 -11.03125 C -3.738281 -13.625 -4.476562 -15.019531 -6.25 -15.21875 C -6.613281 -15.257812 -6.960938 -15.203125 -7.296875 -15.046875 C -7.640625 -14.898438 -7.992188 -14.609375 -8.359375 -14.171875 C -8.734375 -13.734375 -9.03125 -13.34375 -9.25 -13 C -9.476562 -12.664062 -9.828125 -12.113281 -10.296875 -11.34375 C -10.765625 -10.570312 -11.117188 -10.003906 -11.359375 -9.640625 C -12.359375 -8.097656 -13.515625 -6.945312 -14.828125 -6.1875 C -16.140625 -5.425781 -17.492188 -5.125 -18.890625 -5.28125 C -21.316406 -5.550781 -23.195312 -6.664062 -24.53125 -8.625 C -25.863281 -10.59375 -26.398438 -12.71875 -26.140625 -15 Z M -26.140625 -15 "/></g></g></g><g fill="#48a9c5" fill-opacity="1"><g transform="translate(153.036164, 234.129369)"><g><path d="M -19.828125 -25.53125 L -14.703125 -23.734375 L -17.796875 -14.90625 L -12.703125 -13.109375 L -9.734375 -21.5625 L -4.609375 -19.765625 L -7.578125 -11.3125 L -2.421875 -9.5 L 0.671875 -18.328125 L 5.796875 -16.53125 L 0.65625 -1.859375 L -24.96875 -10.859375 Z M -19.828125 -25.53125 "/></g></g></g><g fill="#48a9c5" fill-opacity="1"><g transform="translate(161.527037, 211.617838)"><g><path d="M -18.90625 -21.125 L -0.375 -9.796875 L 4.5 -17.78125 L 9.140625 -14.953125 L 1.03125 -1.6875 L -22.140625 -15.84375 Z M -18.90625 -21.125 "/></g></g></g><g fill="#48a9c5" fill-opacity="1"><g transform="translate(174.266946, 191.771725)"><g><path d="M -14.125 -24.59375 L 1.65625 -9.671875 L 8.078125 -16.46875 L 12.03125 -12.734375 L 1.359375 -1.4375 L -18.375 -20.09375 Z M -14.125 -24.59375 "/></g></g></g><g fill="#48a9c5" fill-opacity="1"><g transform="translate(190.283158, 174.763605)"><g><path d="M -6.609375 -11.90625 C -8.703125 -15.226562 -9.335938 -18.753906 -8.515625 -22.484375 C -7.703125 -26.222656 -5.695312 -29.097656 -2.5 -31.109375 C 0.707031 -33.128906 4.15625 -33.695312 7.84375 -32.8125 C 11.53125 -31.9375 14.425781 -29.828125 16.53125 -26.484375 C 18.644531 -23.128906 19.320312 -19.609375 18.5625 -15.921875 C 17.800781 -12.234375 15.78125 -9.351562 12.5 -7.28125 C 9.132812 -5.164062 5.640625 -4.554688 2.015625 -5.453125 C -1.597656 -6.359375 -4.472656 -8.507812 -6.609375 -11.90625 Z M -0.953125 -15.46875 C -0.191406 -14.257812 0.679688 -13.273438 1.671875 -12.515625 C 2.671875 -11.753906 3.847656 -11.320312 5.203125 -11.21875 C 6.566406 -11.125 7.929688 -11.503906 9.296875 -12.359375 C 11.242188 -13.585938 12.296875 -15.179688 12.453125 -17.140625 C 12.609375 -19.097656 12.085938 -21.023438 10.890625 -22.921875 C 9.710938 -24.796875 8.191406 -26.085938 6.328125 -26.796875 C 4.460938 -27.515625 2.578125 -27.269531 0.671875 -26.0625 C -1.222656 -24.863281 -2.257812 -23.265625 -2.4375 -21.265625 C -2.625 -19.273438 -2.128906 -17.34375 -0.953125 -15.46875 Z M -0.953125 -15.46875 "/></g></g></g><g fill="#48a9c5" fill-opacity="1"><g transform="translate(219.102815, 157.856901)"><g><path d="M 3.390625 -29.953125 C 4.785156 -30.378906 6.21875 -30.59375 7.6875 -30.59375 C 9.164062 -30.59375 10.289062 -30.492188 11.0625 -30.296875 L 12.1875 -29.953125 L 11.25 -24.5 C 11.019531 -24.5625 10.707031 -24.640625 10.3125 -24.734375 C 9.914062 -24.835938 9.203125 -24.914062 8.171875 -24.96875 C 7.140625 -25.03125 6.222656 -24.941406 5.421875 -24.703125 C 4.441406 -24.398438 3.75 -23.953125 3.34375 -23.359375 C 2.9375 -22.773438 2.84375 -22.128906 3.0625 -21.421875 C 3.164062 -21.066406 3.390625 -20.773438 3.734375 -20.546875 C 4.078125 -20.316406 4.609375 -20.117188 5.328125 -19.953125 C 6.054688 -19.796875 6.679688 -19.679688 7.203125 -19.609375 C 7.722656 -19.535156 8.53125 -19.4375 9.625 -19.3125 C 11.519531 -19.113281 13.25 -18.582031 14.8125 -17.71875 C 16.375 -16.851562 17.394531 -15.644531 17.875 -14.09375 C 18.320312 -12.59375 18.445312 -11.207031 18.25 -9.9375 C 18.050781 -8.664062 17.582031 -7.570312 16.84375 -6.65625 C 16.113281 -5.738281 15.222656 -4.953125 14.171875 -4.296875 C 13.128906 -3.640625 11.945312 -3.113281 10.625 -2.71875 C 9.488281 -2.375 8.34375 -2.148438 7.1875 -2.046875 C 6.03125 -1.953125 5.023438 -1.960938 4.171875 -2.078125 C 3.328125 -2.203125 2.5625 -2.34375 1.875 -2.5 C 1.195312 -2.65625 0.6875 -2.804688 0.34375 -2.953125 L -0.1875 -3.171875 L 1.265625 -9.0625 C 1.578125 -8.925781 2 -8.765625 2.53125 -8.578125 C 3.070312 -8.390625 3.988281 -8.191406 5.28125 -7.984375 C 6.570312 -7.773438 7.648438 -7.800781 8.515625 -8.0625 C 11.015625 -8.820312 12.003906 -10.054688 11.484375 -11.765625 C 11.378906 -12.109375 11.1875 -12.410156 10.90625 -12.671875 C 10.632812 -12.929688 10.222656 -13.140625 9.671875 -13.296875 C 9.128906 -13.460938 8.660156 -13.582031 8.265625 -13.65625 C 7.867188 -13.726562 7.21875 -13.828125 6.3125 -13.953125 C 5.414062 -14.078125 4.753906 -14.175781 4.328125 -14.25 C 2.515625 -14.550781 1 -15.148438 -0.21875 -16.046875 C -1.4375 -16.953125 -2.253906 -18.078125 -2.671875 -19.421875 C -3.378906 -21.753906 -3.097656 -23.921875 -1.828125 -25.921875 C -0.554688 -27.929688 1.179688 -29.273438 3.390625 -29.953125 Z M 3.390625 -29.953125 "/></g></g></g><g fill="#48a9c5" fill-opacity="1"><g transform="translate(245.459008, 150.934615)"><g/></g></g><g fill="#48a9c5" fill-opacity="1"><g transform="translate(259.412728, 148.935721)"><g><path d="M 27.828125 -12.703125 L 27.28125 -6.828125 C 26.28125 -3.691406 24.523438 -1.40625 22.015625 0.03125 C 19.503906 1.46875 16.789062 2.050781 13.875 1.78125 C 10.238281 1.445312 7.257812 -0.203125 4.9375 -3.171875 C 2.625 -6.148438 1.644531 -9.570312 2 -13.4375 C 2.363281 -17.375 3.925781 -20.578125 6.6875 -23.046875 C 9.457031 -25.523438 12.71875 -26.59375 16.46875 -26.25 C 20.863281 -25.832031 24.195312 -23.972656 26.46875 -20.671875 L 22.015625 -16.609375 C 20.796875 -19.054688 18.898438 -20.398438 16.328125 -20.640625 C 14.421875 -20.816406 12.71875 -20.140625 11.21875 -18.609375 C 9.726562 -17.085938 8.875 -15.15625 8.65625 -12.8125 C 8.445312 -10.519531 8.9375 -8.5 10.125 -6.75 C 11.320312 -5 12.875 -4.035156 14.78125 -3.859375 C 16.34375 -3.710938 17.753906 -4.0625 19.015625 -4.90625 C 20.273438 -5.75 20.976562 -6.957031 21.125 -8.53125 L 14.890625 -9.109375 L 15.328125 -13.859375 Z M 27.828125 -12.703125 "/></g></g></g><g fill="#48a9c5" fill-opacity="1"><g transform="translate(291.032362, 152.668784)"><g><path d="M 30.984375 -17.328125 L 24.78125 -0.9375 C 23.601562 2.175781 21.867188 4.21875 19.578125 5.1875 C 17.296875 6.15625 14.53125 6.023438 11.28125 4.796875 C 8.039062 3.566406 5.878906 1.832031 4.796875 -0.40625 C 3.710938 -2.644531 3.757812 -5.320312 4.9375 -8.4375 L 11.140625 -24.828125 L 16.9375 -22.640625 L 11.375 -7.953125 C 10.601562 -5.898438 10.390625 -4.347656 10.734375 -3.296875 C 11.078125 -2.253906 11.976562 -1.457031 13.4375 -0.90625 C 14.894531 -0.351562 16.097656 -0.351562 17.046875 -0.90625 C 17.992188 -1.46875 18.851562 -2.773438 19.625 -4.828125 L 25.1875 -19.515625 Z M 30.984375 -17.328125 "/></g></g></g><g fill="#48a9c5" fill-opacity="1"><g transform="translate(318.075179, 163.448558)"><g><path d="M 28.671875 -12.8125 L 21.6875 15.625 L 16.296875 11.734375 L 17.84375 6.15625 L 9.453125 0.109375 L 4.65625 3.359375 L -0.75 -0.53125 L 24.03125 -16.15625 Z M 19.296875 0.515625 L 21.46875 -7.65625 L 21.421875 -7.6875 L 14.328125 -3.0625 Z M 19.296875 0.515625 "/></g></g></g><g fill="#48a9c5" fill-opacity="1"><g transform="translate(342.264875, 182.054276)"><g><path d="M 16.75 -13.859375 L 20.875 -17.359375 L 33.234375 -2.796875 L 29.109375 0.703125 L 24.921875 -4.21875 L 8.34375 9.84375 L 4.34375 5.125 L 20.921875 -8.9375 Z M 16.75 -13.859375 "/></g></g></g><g fill="#48a9c5" fill-opacity="1"><g transform="translate(357.626522, 201.526388)"><g><path d="M 27.578125 -6.5625 L 4.09375 7.0625 L 0.984375 1.703125 L 24.46875 -11.921875 Z M 27.578125 -6.5625 "/></g></g></g><g fill="#48a9c5" fill-opacity="1"><g transform="translate(365.426272, 214.676202)"><g><path d="M 26.328125 -6.96875 L 29.484375 2.21875 C 30.335938 4.695312 30.375 6.941406 29.59375 8.953125 C 28.8125 10.960938 27.195312 12.390625 24.75 13.234375 C 22.851562 13.878906 21.101562 13.945312 19.5 13.4375 C 17.894531 12.925781 16.554688 11.957031 15.484375 10.53125 L 7.90625 23 L 5.34375 15.5625 L 12.8125 4.25 L 2.65625 7.734375 L 0.640625 1.859375 Z M 16.9375 2.828125 L 17.171875 3.5 C 17.359375 4.039062 17.523438 4.492188 17.671875 4.859375 C 17.828125 5.222656 18.050781 5.617188 18.34375 6.046875 C 18.632812 6.484375 18.941406 6.804688 19.265625 7.015625 C 19.585938 7.234375 20.003906 7.367188 20.515625 7.421875 C 21.023438 7.484375 21.59375 7.40625 22.21875 7.1875 C 22.84375 6.976562 23.332031 6.691406 23.6875 6.328125 C 24.050781 5.972656 24.296875 5.609375 24.421875 5.234375 C 24.554688 4.867188 24.601562 4.425781 24.5625 3.90625 C 24.53125 3.394531 24.457031 2.945312 24.34375 2.5625 C 24.238281 2.1875 24.09375 1.726562 23.90625 1.1875 L 23.671875 0.515625 Z M 16.9375 2.828125 "/></g></g></g><g fill="#48a9c5" fill-opacity="1"><g transform="translate(373.876128, 241.757437)"><g><path d="M 28.765625 14.71875 L 23.375 15.25 L 22.4375 5.953125 L 17.0625 6.5 L 17.953125 15.421875 L 12.546875 15.96875 L 11.65625 7.046875 L 6.21875 7.578125 L 7.15625 16.875 L 1.75 17.421875 L 0.203125 1.953125 L 27.21875 -0.75 Z M 28.765625 14.71875 "/></g></g></g><g fill="#ffffff" fill-opacity="1"><g transform="translate(192.206815, 373.62685)"><g><path d="M 8.574219 -2.035156 L 16.199219 -5.492188 L 14.738281 -6.335938 L 8.652344 -3.496094 L 8.089844 -10.1875 L 6.617188 -11.042969 L 7.417969 -2.679688 L 4.390625 2.542969 L 5.535156 3.207031 Z M 8.574219 -2.035156 "/></g></g></g><g fill="#ffffff" fill-opacity="1"><g transform="translate(206.077078, 381.240985)"><g/></g></g><g fill="#ffffff" fill-opacity="1"><g transform="translate(214.739661, 385.137219)"><g><path d="M 4.847656 -3.339844 L 8.992188 -8.179688 L 9.269531 -1.820312 Z M 10.867188 3.730469 L 10 -11.117188 L 0.179688 0.0625 L 1.539062 0.527344 L 3.984375 -2.335938 L 9.335938 -0.496094 L 9.507812 3.261719 Z M 10.867188 3.730469 "/></g></g></g><g fill="#ffffff" fill-opacity="1"><g transform="translate(230.094894, 390.041712)"><g><path d="M 2.96875 -0.6875 L 5.515625 -11.949219 L 4.226562 -12.242188 L 1.382812 0.3125 L 2.03125 0.460938 L 2.675781 0.605469 L 7.164062 1.621094 L 7.457031 0.328125 Z M 2.96875 -0.6875 "/></g></g></g><g fill="#ffffff" fill-opacity="1"><g transform="translate(242.063258, 392.692935)"><g><path d="M 14.65625 -4.5625 L 7.988281 -5.238281 L 7.875 -4.089844 L 13.070312 -3.5625 C 12.5625 -2.492188 11.8125 -1.65625 10.804688 -1.09375 C 9.792969 -0.507812 8.707031 -0.296875 7.558594 -0.414062 C 6.089844 -0.5625 4.898438 -1.195312 3.964844 -2.335938 C 3.054688 -3.476562 2.675781 -4.789062 2.820312 -6.238281 C 2.96875 -7.691406 3.601562 -8.882812 4.742188 -9.8125 C 5.863281 -10.726562 7.160156 -11.125 8.628906 -10.976562 C 9.722656 -10.867188 10.6875 -10.445312 11.507812 -9.734375 C 12.351562 -9.019531 12.90625 -8.144531 13.21875 -7.066406 L 14.609375 -6.925781 C 14.320312 -8.382812 13.625 -9.59375 12.546875 -10.578125 C 11.464844 -11.566406 10.15625 -12.152344 8.632812 -12.308594 C 7.800781 -12.394531 6.972656 -12.285156 6.148438 -12.027344 C 5.304688 -11.769531 4.558594 -11.371094 3.894531 -10.828125 C 3.230469 -10.289062 2.691406 -9.640625 2.269531 -8.882812 C 1.851562 -8.109375 1.59375 -7.257812 1.5 -6.355469 C 1.410156 -5.449219 1.492188 -4.566406 1.75 -3.742188 C 2.007812 -2.898438 2.40625 -2.152344 2.949219 -1.488281 C 3.488281 -0.824219 4.136719 -0.285156 4.914062 0.136719 C 5.671875 0.554688 6.519531 0.8125 7.421875 0.90625 C 8.96875 1.0625 10.410156 0.714844 11.753906 -0.15625 C 13.101562 -1.050781 14.003906 -2.25 14.445312 -3.785156 Z M 14.65625 -4.5625 "/></g></g></g><g fill="#ffffff" fill-opacity="1"><g transform="translate(261.670709, 394.326179)"><g><path d="M 12.425781 -7.09375 C 12.496094 -5.617188 12.027344 -4.34375 11.058594 -3.273438 C 10.070312 -2.183594 8.847656 -1.609375 7.390625 -1.539062 C 5.933594 -1.464844 4.664062 -1.914062 3.589844 -2.90625 C 2.5 -3.875 1.929688 -5.097656 1.855469 -6.574219 C 1.785156 -8.007812 2.234375 -9.28125 3.222656 -10.375 C 4.195312 -11.445312 5.414062 -12.035156 6.871094 -12.105469 C 8.328125 -12.179688 9.601562 -11.710938 10.691406 -10.742188 C 11.761719 -9.75 12.355469 -8.527344 12.425781 -7.09375 Z M 13.746094 -7.15625 C 13.703125 -8.066406 13.472656 -8.90625 13.09375 -9.703125 C 12.710938 -10.480469 12.207031 -11.15625 11.570312 -11.730469 C 10.9375 -12.289062 10.214844 -12.726562 9.402344 -13.027344 C 8.574219 -13.328125 7.714844 -13.476562 6.804688 -13.429688 C 5.898438 -13.386719 5.039062 -13.152344 4.261719 -12.773438 C 3.484375 -12.394531 2.808594 -11.886719 2.230469 -11.273438 C 1.65625 -10.636719 1.21875 -9.914062 0.917969 -9.105469 C 0.617188 -8.273438 0.488281 -7.414062 0.53125 -6.507812 C 0.578125 -5.601562 0.789062 -4.738281 1.167969 -3.960938 C 1.550781 -3.164062 2.058594 -2.488281 2.691406 -1.914062 C 3.328125 -1.339844 4.050781 -0.898438 4.859375 -0.597656 C 5.671875 -0.296875 6.546875 -0.171875 7.457031 -0.214844 C 8.363281 -0.257812 9.207031 -0.472656 10.003906 -0.851562 C 10.78125 -1.230469 11.457031 -1.738281 12.03125 -2.371094 C 12.605469 -3.007812 13.042969 -3.730469 13.34375 -4.558594 C 13.644531 -5.371094 13.792969 -6.25 13.746094 -7.15625 Z M 13.746094 -7.15625 "/></g></g></g><g fill="#ffffff" fill-opacity="1"><g transform="translate(290.461564, 391.353411)"><g><path d="M 12.804688 -3.546875 L 14.101562 -3.90625 L 7.554688 -16.332031 L 6.429688 -4.589844 L -0.578125 -14.078125 L 0.183594 -0.0507812 L 1.496094 -0.414062 L 0.964844 -9.773438 L 7.351562 -1.25 L 8.425781 -11.839844 Z M 12.804688 -3.546875 "/></g></g></g><g fill="#ffffff" fill-opacity="1"><g transform="translate(309.073323, 385.761867)"><g><path d="M 1.34375 -5.730469 L 1.15625 -12.101562 L 5.636719 -7.582031 Z M 10.550781 -4.546875 L -0.0742188 -14.953125 L 0.175781 -0.0742188 L 1.496094 -0.644531 L 1.378906 -4.40625 L 6.578125 -6.644531 L 9.230469 -3.976562 Z M 1.03125 -18.847656 L -0.464844 -18.203125 L -0.785156 -15.121094 L 0.191406 -15.539062 Z M 1.03125 -18.847656 "/></g></g></g><g fill="#ffffff" fill-opacity="1"><g transform="translate(323.829897, 379.079947)"><g><path d="M 1.253906 -7.738281 C 2.890625 -8.234375 4.09375 -8.429688 4.863281 -8.308594 C 5.394531 -8.226562 5.792969 -7.953125 6.0625 -7.496094 C 6.328125 -7.039062 6.449219 -6.605469 6.40625 -6.226562 C 6.3125 -5.253906 5.632812 -4.398438 4.386719 -3.671875 C 2.65625 -2.664062 1.328125 -2.679688 0.429688 -3.734375 L -0.910156 -2.953125 C 0.578125 -1.300781 2.542969 -1.199219 4.996094 -2.625 C 6.09375 -3.265625 6.875 -4.027344 7.328125 -4.945312 C 7.875 -6.035156 7.839844 -7.152344 7.191406 -8.261719 C 6.65625 -9.179688 5.886719 -9.671875 4.882812 -9.746094 C 4.164062 -9.808594 3.15625 -9.660156 1.855469 -9.296875 C 0.539062 -8.925781 -0.339844 -8.742188 -0.785156 -8.71875 C -1.757812 -8.660156 -2.4375 -8.960938 -2.824219 -9.660156 C -3.03125 -10.019531 -3.148438 -10.367188 -3.117188 -10.691406 C -3.066406 -11.578125 -2.503906 -12.34375 -1.421875 -12.972656 C 0.0976562 -13.859375 1.25 -13.871094 2.03125 -13.058594 L 3.273438 -13.78125 C 1.933594 -15.144531 0.164062 -15.210938 -1.996094 -13.953125 C -2.976562 -13.382812 -3.691406 -12.613281 -4.105469 -11.671875 C -4.535156 -10.71875 -4.464844 -9.730469 -3.855469 -8.683594 C -3.027344 -7.261719 -1.308594 -6.949219 1.253906 -7.738281 Z M 1.253906 -7.738281 "/></g></g></g></svg>